<?xml version="1.0"?>
<svg xmlns="http://www.w3.org/2000/svg" xmlns:xlink="http://www.w3.org/1999/xlink" viewBox="0 0 512 512" width="512" height="512"><linearGradient id="a" gradientUnits="userSpaceOnUse" x1="335.312" x2="335.313" y1="17.56" y2="493.074"><stop offset="0" stop-color="#00efd1"/><stop offset="1" stop-color="#00acea"/></linearGradient><linearGradient id="b" x1="329.935" x2="329.935" xlink:href="#a" y1="17.56" y2="493.074"/><linearGradient id="c" x1="255.898" x2="255.898" xlink:href="#a" y1="17.56" y2="493.074"/><path d="m335.286 269.708c72.144 0 130.837-58.693 130.837-130.837s-58.693-130.837-130.837-130.837c-72.114 0-130.786 58.694-130.786 130.837s58.672 130.837 130.786 130.837zm0-241.674a110.837 110.837 0 1 1 -110.786 110.837 110.963 110.963 0 0 1 110.786-110.837z" fill="url(#a)"/><path d="m282.126 156h23.123c-.034 3-.14 5.062-.344 7.43-.021.248-.033.582-.036.83a36.731 36.731 0 0 1 -6.942 18.368l-5.17 7.071a10.01 10.01 0 0 0 9.252 15.859l19.217-2.295.179-.022a25.089 25.089 0 0 1 3.229-.166 28.7 28.7 0 0 1 12.959 3.142 48.437 48.437 0 0 0 36.3 3.152l6.789-2.089a10 10 0 1 0 -5.881-19.115l-6.775 2.084a28.489 28.489 0 0 1 -21.358-1.854 48.77 48.77 0 0 0 -22.034-5.32c-1.069 0-2.539.02-4.156.156a56.23 56.23 0 0 0 4.359-17.669c.017-.224.028-.619.03-.844.231-2.8.35-5.718.383-8.718h24.762a10 10 0 0 0 0-20h-25.948a135.23 135.23 0 0 0 -2.706-14.241 68.6 68.6 0 0 1 -2.181-15.506 20.682 20.682 0 0 1 1.494-7.775 18.757 18.757 0 0 1 4.051-6.306 19.456 19.456 0 0 1 6.518-4.361 21.534 21.534 0 0 1 8.433-1.609c14.735 0 18.162 8.2 19.457 14.357a10 10 0 1 0 19.57-4.111c-4.039-19.219-18.265-30.241-39.029-30.241a41.456 41.456 0 0 0 -16.235 3.2 39.541 39.541 0 0 0 -13.056 8.847 38.782 38.782 0 0 0 -8.3 12.884 40.754 40.754 0 0 0 -2.907 15.2 87.725 87.725 0 0 0 2.737 20.105c.769 3.16 1.4 6.557 1.926 9.557h-21.71a10 10 0 0 0 0 20z" fill="url(#b)"/><path d="m486.056 309.094a37.2 37.2 0 0 0 -52.174-5.444c-19.963 16.251-49.112 39.82-68 55.057a79.608 79.608 0 0 1 -46.8 17.43l-51.212 1.673a5.666 5.666 0 0 1 -5.057-2.74l-5.714-9.753a5.5 5.5 0 0 1 -.294-5.185 5.62 5.62 0 0 1 4.095-3.232l52.873-9.968c18.645-3.462 31.589-21.112 29.47-40.184a36.2 36.2 0 0 0 -36.048-32.182c-.511 0-1.115 0-1.81.039l-70.685-2.905c-28.213-.994-52.353 4.42-80.684 18.118l-37.016 17.948a30.862 30.862 0 0 0 -27.982-17.766h-40.941a30.97 30.97 0 0 0 -31.077 30.753v152.325a31.115 31.115 0 0 0 31.077 30.922h40.941a31.033 31.033 0 0 0 30.982-30.922v-10.278l39.317-7.219c12.748-1.888 20.725-2.626 34.173-2.02l107.536 4.962a155.442 155.442 0 0 0 106.343-35.871l74.463-61.776c.049-.04.1-.08.142-.121a36.486 36.486 0 0 0 4.981-50.369 9.948 9.948 0 0 0 -.899-1.292zm-386.056 164.018a10.888 10.888 0 0 1 -10.888 10.888h-41.224a10.888 10.888 0 0 1 -10.888-10.888v-152.224a10.888 10.888 0 0 1 10.888-10.888h41.224a10.888 10.888 0 0 1 10.888 10.888zm368.98-127.562-74.4 61.718a135.572 135.572 0 0 1 -92.677 31.277l-107.531-4.962c-15.074-.679-24.33.182-38.209 2.24-.113.017-.178.035-.29.056l-35.873 6.589v-113.96l42.765-20.685c25.207-12.187 46.488-17.008 71.194-16.139l71.163 2.923a9.739 9.739 0 0 0 1.3-.031c.128-.012.454-.012.772-.012a16.423 16.423 0 0 1 16.17 14.395 16.668 16.668 0 0 1 -13.272 18.312l-52.925 9.978a25.643 25.643 0 0 0 -17.3 38.22l5.705 9.736a25.621 25.621 0 0 0 22.991 12.595l51.2-1.672a99.766 99.766 0 0 0 58.67-21.846c18.911-15.258 48.087-38.847 68.074-55.118a17.386 17.386 0 0 1 23.619 2.068 10.145 10.145 0 0 0 .816 1.155 16.408 16.408 0 0 1 -1.962 23.163z" fill="url(#c)"/></svg>
